<svg width="638" height="583" viewBox="0 0 638 583" fill="none" xmlns="http://www.w3.org/2000/svg">
<path d="M13.4693 0.587101H123.363C217.139 0.540019 256.686 0.553471 274.515 0.587101C298.584 0.627458 304.514 0.728348 319.873 0.587101C323.503 0.553471 332.492 0.459306 344.602 0.519841C357.771 0.580375 364.471 0.620732 369.96 1.01084C380.14 1.73053 389.759 2.40313 400.869 5.88722C410.398 8.87359 416.668 12.5595 421.248 15.2432C429.387 20.0254 434.457 24.5049 437.587 27.303C439.517 29.0248 444.356 33.4842 449.276 39.8201C454.156 46.1022 456.816 51.2678 457.786 53.252C460.706 59.1979 461.865 63.7312 463.235 69.2062C464.685 75.031 466.255 81.3064 466.455 89.7341C466.575 94.6105 466.705 102.958 463.235 113.564C462.115 116.975 459.436 124.252 453.556 132.902C449.326 139.123 444.856 143.973 441.507 147.269C434.857 153.827 428.737 158.138 427.317 159.12C424.147 161.326 420.308 164.01 414.418 166.929C409.238 169.492 404.809 171.065 402.289 171.96C398.939 173.151 395.759 174.26 391.239 175.276C389.819 175.592 386.15 176.379 380.69 176.964C375.32 177.536 371.93 177.522 362.511 177.549C355.671 177.57 348.841 177.623 342.002 177.664C333.072 177.711 332.542 177.758 324.873 177.805C313.953 177.872 308.674 177.825 296.784 177.805C285.865 177.785 285.185 177.825 265.896 177.852C244.727 177.886 244.297 177.845 211.159 177.852C189.03 177.852 178.561 177.872 170.401 177.879C158.422 177.879 146.452 177.879 134.473 177.879C131.013 177.879 111.874 177.879 107.404 177.879C97.6149 177.879 92.7151 177.879 92.7151 177.879C87.6454 177.791 85.6555 177.67 81.9457 177.879C77.146 178.155 73.5561 178.753 70.7763 179.231C67.5265 179.789 63.0967 180.563 57.697 182.278C52.2773 184 48.5475 185.816 46.1276 187.013C41.5778 189.259 38.508 191.277 36.6681 192.495C32.7283 195.104 30.1084 197.297 28.0186 199.059C26.0387 200.721 23.4688 202.913 20.569 206.034C18.2191 208.57 16.7692 210.534 15.2392 212.599C13.2293 215.309 11.1295 218.148 9.09957 222.076C7.42965 225.304 6.5697 227.793 5.57975 230.672C4.7398 233.1 3.87984 235.945 3.05989 239.469C1.66996 245.476 0.510022 250.487 0.500022 257.078C0.490023 268.358 3.85984 276.987 5.25977 280.236C6.5497 283.229 7.95963 285.798 8.65959 287.09C10.5595 290.547 12.9994 294.926 17.2191 300.071C22.6488 306.689 28.2285 311.156 29.8485 312.42C36.0881 317.31 41.9478 320.532 44.9777 322.106C47.2975 323.309 50.5574 324.978 55.3071 326.74C57.927 327.708 62.0268 329.215 67.8264 330.392C71.9962 331.233 75.3061 331.556 77.5559 331.764C80.1658 332.006 82.7756 332.161 89.7453 332.248C95.865 332.322 98.6948 332.269 106.234 332.262C111.624 332.255 110.304 332.282 120.514 332.295C127.143 332.309 129.353 332.295 138.953 332.295C144.472 332.295 145.942 332.295 157.652 332.302C158.572 332.302 170.981 332.302 183.63 332.302C191.63 332.302 199.629 332.302 207.629 332.302C208.239 332.302 218.948 332.302 219.628 332.302C254.467 332.302 289.315 332.302 324.153 332.302C356.511 332.302 388.879 332.302 421.238 332.302H454.166" stroke="#3A3532" stroke-miterlimit="10"/>
<path d="M184.469 250.38H294.363C388.139 250.333 427.686 250.346 445.515 250.38C469.584 250.42 475.514 250.521 490.873 250.38C494.503 250.346 503.492 250.252 515.602 250.313C528.771 250.373 535.471 250.414 540.96 250.804C551.14 251.523 560.759 252.196 571.869 255.68C581.398 258.667 587.668 262.352 592.248 265.036C600.387 269.818 605.457 274.298 608.587 277.096C610.517 278.818 615.356 283.277 620.276 289.613C625.156 295.895 627.816 301.061 628.786 303.045C631.706 308.991 632.865 313.524 634.235 318.999C635.685 324.824 637.255 331.099 637.455 339.527C637.575 344.403 637.705 352.75 634.235 363.357C633.115 366.768 630.436 374.045 624.556 382.695C620.326 388.916 615.856 393.766 612.507 397.062C605.857 403.62 599.737 407.931 598.317 408.913C595.147 411.119 591.308 413.803 585.418 416.722C580.238 419.285 575.809 420.858 573.289 421.753C569.939 422.943 566.759 424.053 562.239 425.069C560.819 425.385 557.15 426.172 551.69 426.757C546.32 427.329 542.93 427.315 533.511 427.342C526.671 427.363 519.841 427.416 513.002 427.457C504.072 427.504 503.542 427.551 495.873 427.598C484.953 427.665 479.674 427.618 467.784 427.598C456.865 427.578 456.185 427.618 436.896 427.645C415.727 427.679 415.297 427.638 382.159 427.645C360.03 427.645 349.561 427.665 341.401 427.672C329.422 427.672 317.452 427.672 305.473 427.672C302.013 427.672 282.874 427.672 278.404 427.672C268.615 427.672 263.715 427.672 263.715 427.672C258.645 427.584 256.655 427.463 252.946 427.672C248.146 427.948 244.556 428.546 241.776 429.024C238.526 429.582 234.097 430.356 228.697 432.071C223.277 433.793 219.547 435.609 217.128 436.806C212.578 439.052 209.508 441.07 207.668 442.288C203.728 444.897 201.108 447.09 199.019 448.852C197.039 450.514 194.469 452.706 191.569 455.827C189.219 458.363 187.769 460.327 186.239 462.392C184.229 465.102 182.129 467.941 180.1 471.869C178.43 475.097 177.57 477.586 176.58 480.465C175.74 482.893 174.88 485.738 174.06 489.262C172.67 495.269 171.51 500.28 171.5 506.871C171.49 518.151 174.86 526.78 176.26 530.029C177.55 533.022 178.96 535.591 179.66 536.883C181.559 540.34 183.999 544.719 188.219 549.864C193.649 556.482 199.229 560.948 200.848 562.213C207.088 567.103 212.948 570.325 215.978 571.898C218.298 573.102 221.557 574.771 226.307 576.533C228.927 577.501 233.027 579.008 238.826 580.185C242.996 581.026 246.306 581.349 248.556 581.557C251.166 581.799 253.776 581.954 260.745 582.041C266.865 582.115 269.695 582.062 277.234 582.055C282.624 582.048 281.304 582.075 291.514 582.088C298.143 582.102 300.353 582.088 309.953 582.088C315.472 582.088 316.942 582.088 328.652 582.095C329.572 582.095 341.981 582.095 354.63 582.095C362.63 582.095 370.629 582.095 378.629 582.095C379.239 582.095 389.948 582.095 390.628 582.095C425.467 582.095 460.315 582.095 495.153 582.095C527.511 582.095 559.879 582.095 592.238 582.095H625.166" stroke="#3A3532" stroke-miterlimit="10"/>
</svg>
